<?xml version="1.0" standalone="no"?>
<!DOCTYPE svg PUBLIC "-//W3C//DTD SVG 20010904//EN"
 "http://www.w3.org/TR/2001/REC-SVG-20010904/DTD/svg10.dtd">
<svg version="1.0" xmlns="http://www.w3.org/2000/svg"
 width="512.000000pt" height="512.000000pt" viewBox="0 0 512.000000 512.000000"
 preserveAspectRatio="xMidYMid meet">

<g transform="translate(0.000000,512.000000) scale(0.100000,-0.100000)"
fill="#000000" stroke="none">
<path d="M2577 4899 c-136 -15 -290 -77 -412 -164 -119 -85 -244 -235 -286
-345 -10 -25 -22 -44 -28 -43 -17 4 -33 -35 -30 -72 2 -19 0 -37 -4 -41 -12
-12 -8 -24 6 -18 7 2 30 -2 50 -11 20 -8 40 -15 45 -15 4 0 14 28 21 62 7 34
22 80 33 102 37 73 127 193 184 245 76 70 243 161 377 207 l112 39 175 0 c172
0 177 -1 270 -33 230 -80 412 -241 517 -457 59 -123 90 -274 63 -315 -7 -11
-10 3 -10 45 -1 301 -296 638 -635 725 -114 29 -122 24 -22 -14 48 -19 90 -35
92 -37 8 -9 -134 0 -190 11 -72 15 -254 8 -370 -14 -108 -21 -221 -79 -322
-165 -153 -132 -242 -255 -259 -358 -5 -35 -3 -43 14 -52 10 -5 25 -24 32 -41
31 -74 -63 -260 -131 -260 -13 0 -20 -12 -28 -52 -20 -102 -20 -101 19 -106
72 -8 135 -68 171 -162 21 -55 23 -70 11 -70 -5 0 -19 23 -32 52 -30 67 -92
134 -136 148 -47 16 -53 6 -27 -38 93 -156 128 -312 74 -330 -10 -3 -10 0 -2
17 24 44 -24 206 -84 285 -36 47 -40 95 -17 199 18 83 17 98 -3 78 -6 -5 -19
-11 -29 -13 -19 -3 -33 -41 -56 -150 -5 -27 -17 -62 -25 -79 -9 -17 -15 -32
-13 -33 2 -1 17 -6 33 -12 61 -20 115 -173 114 -324 0 -80 -17 -73 -18 8 -1
59 -29 188 -51 239 -10 23 -30 49 -44 58 -25 17 -28 17 -46 0 -11 -10 -25 -34
-32 -54 -13 -39 -16 -163 -4 -222 6 -36 7 -37 63 -41 89 -8 102 -47 37 -110
-40 -39 -41 -48 -10 -77 23 -22 27 -22 101 -11 42 6 79 9 83 6 13 -13 -16 -25
-78 -33 l-65 -8 -11 -40 c-6 -22 -14 -48 -18 -57 -5 -10 -3 -56 4 -103 14
-101 9 -132 -26 -145 -54 -21 -112 22 -135 99 -7 24 -21 43 -35 50 -43 19 -29
36 31 37 59 0 67 -6 34 -30 -47 -32 12 -136 77 -136 18 0 36 5 39 10 3 6 -4
63 -15 128 l-22 117 -60 57 c-51 50 -58 60 -48 78 7 13 21 20 39 20 51 0 141
83 116 108 -15 15 -221 7 -300 -12 -44 -10 -87 -22 -95 -26 -24 -11 -57 -66
-92 -152 -28 -67 -42 -88 -90 -130 -67 -58 -118 -131 -118 -169 0 -20 22 -54
78 -121 71 -85 112 -140 239 -326 50 -74 68 -127 59 -176 -10 -51 -31 -60 -23
-10 8 49 -18 108 -95 214 -30 42 -84 121 -121 175 -37 55 -83 117 -102 137
l-34 37 -58 -20 c-157 -53 -236 -127 -324 -304 -81 -163 -91 -209 -96 -438 -5
-214 8 -455 33 -582 15 -80 15 -81 -10 -157 -14 -42 -26 -92 -26 -112 0 -19
-11 -70 -24 -113 -14 -43 -30 -104 -36 -136 -7 -32 -23 -91 -36 -130 -38 -111
-47 -169 -33 -219 7 -24 11 -49 10 -56 -3 -19 18 -42 40 -42 11 0 27 -9 37
-21 85 -103 497 -154 1037 -130 227 11 328 21 394 42 36 12 36 11 15 108 l-7
34 34 -6 c19 -4 69 -9 112 -13 71 -6 79 -5 83 12 5 17 17 19 128 21 153 1 222
15 276 54 52 38 89 45 128 25 40 -21 86 -20 107 1 15 14 23 15 69 4 28 -6 63
-14 78 -17 14 -4 28 -14 31 -24 3 -14 19 -19 73 -24 38 -4 112 -16 166 -27
152 -30 159 -29 231 41 50 48 65 70 80 117 10 32 38 108 63 170 37 94 44 122
44 181 l0 71 -42 28 c-23 15 -51 43 -62 62 -19 33 -19 41 -7 255 11 198 10
225 -4 251 -12 24 -14 48 -10 115 7 97 19 137 45 145 20 6 19 -5 39 360 6 118
14 183 26 213 25 62 86 109 173 135 39 11 72 26 72 32 0 6 -17 39 -37 74 -53
90 -162 188 -267 241 -82 42 -86 46 -99 89 l-12 44 -56 -99 c-31 -54 -73 -139
-93 -188 -21 -49 -51 -110 -69 -135 -65 -95 -188 -250 -217 -275 -81 -68 -253
-73 -345 -10 -20 13 -41 24 -47 24 -7 0 -55 24 -107 52 -71 39 -117 74 -177
133 -74 74 -143 170 -131 182 10 9 25 -7 55 -60 44 -78 155 -176 254 -225 253
-123 294 -135 385 -113 74 19 117 55 207 175 108 145 125 173 171 280 21 49
62 130 91 179 75 127 89 192 89 430 0 103 3 187 6 187 9 0 19 -137 19 -254 0
-94 -8 -172 -25 -238 -6 -24 -4 -26 15 -21 42 11 98 78 139 163 81 169 90 276
30 345 l-30 34 38 3 c31 2 39 7 41 25 2 16 -4 26 -22 35 -34 15 -33 28 3 28
82 0 94 190 14 221 l-28 11 24 9 c22 9 23 10 7 34 -14 21 -15 35 -6 92 7 43
19 76 31 90 29 30 21 57 -17 61 -30 3 -34 8 -59 80 -121 341 -377 557 -711
601 -111 14 -306 20 -387 10z m488 -2089 c44 -3 73 -7 65 -8 -9 -1 -24 -17
-34 -34 -11 -18 -28 -43 -39 -55 -15 -17 -17 -23 -6 -23 12 0 11 -2 -1 -10
-20 -13 -104 -13 -150 1 -20 6 -54 27 -76 46 -38 35 -27 31 41 -13 15 -10 55
-19 93 -21 l67 -5 33 50 c17 28 32 53 32 56 0 2 -28 4 -62 4 -113 -1 -288 14
-288 25 0 10 121 5 325 -13z"/>
<path d="M1804 4186 c-49 -21 -77 -90 -72 -173 4 -57 8 -69 32 -90 20 -17 32
-21 39 -14 15 15 44 14 50 -1 7 -20 59 22 80 64 10 20 23 61 29 92 15 67 6 88
-40 97 -17 3 -43 14 -56 23 -30 19 -23 19 -62 2z"/>
<path d="M3855 2526 c-97 -24 -155 -72 -175 -144 -14 -54 -30 -253 -33 -421
-2 -143 -2 -144 23 -162 44 -33 138 -50 306 -56 179 -7 248 4 284 42 18 19 22
39 28 132 l7 109 -52 -53 c-46 -47 -56 -53 -93 -53 -91 0 -159 72 -236 252
-35 82 -39 98 -26 98 4 0 18 -28 31 -62 55 -146 148 -258 213 -258 51 0 90 31
125 96 42 80 57 159 50 264 -10 131 -41 199 -100 220 -41 14 -290 11 -352 -4z"/>
<path d="M3593 1818 c-6 -7 -13 -56 -17 -109 -5 -82 -4 -98 10 -110 15 -12 16
-37 9 -240 -8 -259 -6 -271 67 -311 34 -18 44 -29 46 -53 11 -132 12 -135 49
-153 l35 -17 -7 -55 c-12 -93 -14 -180 -4 -180 5 0 7 -23 6 -50 -4 -64 -44
-123 -118 -171 -107 -70 -120 -73 -379 -79 l-235 -5 -3 -23 -4 -23 224 5 c237
5 295 14 387 60 67 34 107 70 138 125 15 25 35 57 45 70 10 13 18 34 18 47 0
13 9 28 20 34 11 6 20 19 20 30 0 10 4 21 9 24 5 3 12 32 15 63 4 32 9 70 12
85 l5 27 49 -49 c26 -26 53 -65 60 -87 19 -58 25 -63 66 -50 24 7 39 20 46 36
16 44 27 51 54 39 18 -8 34 -8 63 0 35 11 39 16 44 53 6 46 35 85 50 70 7 -7
6 -15 -2 -25 -7 -8 -11 -27 -9 -42 2 -21 11 -30 38 -39 l35 -12 3 -205 c2
-203 3 -206 25 -212 34 -9 103 -7 131 4 l26 10 0 203 0 203 33 9 c25 8 33 16
35 38 2 16 -3 36 -11 45 -7 10 -19 35 -25 57 -6 23 -25 54 -41 69 -51 49 -146
45 -190 -8 -18 -21 -57 -11 -99 26 -33 28 -35 29 -128 24 -72 -4 -94 -2 -94 8
0 7 17 18 38 24 21 7 55 26 75 44 l38 33 15 224 c14 200 17 226 35 240 17 13
21 33 26 121 5 89 3 107 -10 118 -14 12 -19 11 -37 -6 -39 -36 -125 -52 -276
-52 -220 0 -351 28 -383 81 -14 23 -20 27 -28 17z"/>
</g>
</svg>
